<?xml version="1.0" encoding="utf-8"?>
<!-- Generator: Adobe Illustrator 16.0.0, SVG Export Plug-In . SVG Version: 6.00 Build 0)  -->
<!DOCTYPE svg PUBLIC "-//W3C//DTD SVG 1.1//EN" "http://www.w3.org/Graphics/SVG/1.1/DTD/svg11.dtd">
<svg version="1.1" id="Capa_1" xmlns="http://www.w3.org/2000/svg" xmlns:xlink="http://www.w3.org/1999/xlink" x="0px" y="0px"
	 width="16px" height="16px" viewBox="0 0 16 16" enable-background="new 0 0 16 16" xml:space="preserve">
<path d="M6.5,0C5.671,0,5,0.671,5,1.5v1C5,3.329,5.671,4,6.5,4h3C10.328,4,11,3.329,11,2.5v-1C11,0.671,10.328,0,9.5,0H6.5z M9.5,1
	C9.776,1,10,1.224,10,1.5v1C10,2.776,9.776,3,9.5,3h-3C6.224,3,6,2.776,6,2.5v-1C6,1.224,6.224,1,6.5,1H9.5z"/>
<path d="M4,1.5H3c-1.104,0-2,0.896-2,2V14c0,1.104,0.896,2,2,2h10c1.104,0,2-0.896,2-2V3.5c0-1.104-0.896-2-2-2h-1v1
	C12,3.881,10.881,5,9.5,5h-3C5.119,5,4,3.881,4,2.5V1.5z M7.838,8.153l1.147-1.146c0.195-0.195,0.511-0.195,0.706,0
	s0.195,0.512,0,0.707l-1.5,1.5c0,0.002,0,0.002,0,0.002L7.485,9.208c0,0,0,0-0.001-0.002l-1.5-1.5C5.789,7.511,5.789,7.195,5.984,7
	s0.513-0.195,0.708,0l1.146,1.146 M7.333,8.559 M7.817,10.273L6.669,11.42c-0.195,0.195-0.511,0.195-0.707,0s-0.195-0.512,0-0.707
	l1.5-1.5c0-0.002,0-0.002,0-0.002l0.706,0.008c0.001,0,0.001,0,0.001,0.002l1.5,1.5c0.195,0.195,0.195,0.512,0,0.707
	s-0.512,0.195-0.707,0l-1.146-1.146"/>
</svg>
